<svg width="25" height="25" viewBox="0 0 25 25" fill="none" xmlns="http://www.w3.org/2000/svg">
<g id="briefcase">
<path id="Vector" d="M20.4297 7.10547H4.42969C3.32512 7.10547 2.42969 8.0009 2.42969 9.10547V19.1055C2.42969 20.21 3.32512 21.1055 4.42969 21.1055H20.4297C21.5343 21.1055 22.4297 20.21 22.4297 19.1055V9.10547C22.4297 8.0009 21.5343 7.10547 20.4297 7.10547Z" stroke="white" stroke-width="2" stroke-linecap="round" stroke-linejoin="round"/>
<path id="Vector_2" d="M16.4297 21.1055V5.10547C16.4297 4.57504 16.219 4.06633 15.8439 3.69126C15.4688 3.31618 14.9601 3.10547 14.4297 3.10547H10.4297C9.89925 3.10547 9.39055 3.31618 9.01547 3.69126C8.6404 4.06633 8.42969 4.57504 8.42969 5.10547V21.1055" stroke="white" stroke-width="2" stroke-linecap="round" stroke-linejoin="round"/>
</g>
</svg>
