<svg width="60" height="60" viewBox="0 0 60 60" fill="none" xmlns="http://www.w3.org/2000/svg">
<g id="Group 18383">
<path id="Ellipse 868" d="M60 30C60 22.0435 56.8393 14.4129 51.2132 8.7868C45.5871 3.16071 37.9565 6.00699e-07 30 0C22.0435 -6.00699e-07 14.4129 3.1607 8.7868 8.78679C3.16071 14.4129 1.2014e-06 22.0435 0 30H7.71659C7.71659 24.0901 10.0643 18.4222 14.2433 14.2432C18.4222 10.0643 24.0901 7.71659 30 7.71659C35.9099 7.71659 41.5778 10.0643 45.7568 14.2432C49.9357 18.4222 52.2834 24.0901 52.2834 30H60Z" fill="#EAECF0"/>
<path id="Ellipse 867" d="M58.9431 22.1072C57.0333 15.1037 52.6488 9.03026 46.6025 5.01287C40.5563 0.995481 33.2584 -0.693313 26.062 0.259591C18.8655 1.2125 12.2587 4.74246 7.46641 10.195C2.6741 15.6476 0.0214037 22.6529 0.000128837 29.9121L7.71668 29.9347C7.73249 24.5427 9.70286 19.3393 13.2625 15.2893C16.8221 11.2392 21.7295 8.61721 27.0749 7.90941C32.4203 7.20161 37.841 8.45601 42.332 11.4401C46.8231 14.4241 50.0798 18.9353 51.4984 24.1374L58.9431 22.1072Z" fill="#21A14B"/>
</g>
</svg>
