<svg width="25" height="24" viewBox="0 0 25 24" fill="none" xmlns="http://www.w3.org/2000/svg">
<g id="material-symbols:filter-list-rounded">
<path id="Vector" d="M11.5 18C11.2167 18 10.979 17.904 10.787 17.712C10.595 17.52 10.4993 17.2827 10.5 17C10.5 16.7167 10.596 16.479 10.788 16.287C10.98 16.095 11.2173 15.9993 11.5 16H13.5C13.7833 16 14.021 16.096 14.213 16.288C14.405 16.48 14.5007 16.7173 14.5 17C14.5 17.2833 14.404 17.521 14.212 17.713C14.02 17.905 13.7827 18.0007 13.5 18H11.5ZM4.5 8C4.21667 8 3.979 7.904 3.787 7.712C3.595 7.52 3.49934 7.28267 3.5 7C3.5 6.71667 3.596 6.479 3.788 6.287C3.98 6.095 4.21734 5.99934 4.5 6H20.5C20.7833 6 21.021 6.096 21.213 6.288C21.405 6.48 21.5007 6.71734 21.5 7C21.5 7.28334 21.404 7.521 21.212 7.713C21.02 7.905 20.7827 8.00067 20.5 8H4.5ZM7.5 13C7.21667 13 6.979 12.904 6.787 12.712C6.595 12.52 6.49934 12.2827 6.5 12C6.5 11.7167 6.596 11.479 6.788 11.287C6.98 11.095 7.21734 10.9993 7.5 11H17.5C17.7833 11 18.021 11.096 18.213 11.288C18.405 11.48 18.5007 11.7173 18.5 12C18.5 12.2833 18.404 12.521 18.212 12.713C18.02 12.905 17.7827 13.0007 17.5 13H7.5Z" fill="#1D2939"/>
</g>
</svg>
