<svg width="23" height="22" viewBox="0 0 23 22" fill="none" xmlns="http://www.w3.org/2000/svg">
<g id="puzzle">
<path id="Vector" d="M12.0452 5.40086C12.145 5.11912 12.1991 4.81589 12.1991 4.5C12.1991 3.00883 10.9904 1.8 9.49918 1.8C8.00802 1.8 6.79919 3.00883 6.79919 4.5C6.79919 4.81589 6.85344 5.11912 6.95312 5.40086C4.89684 5.40837 3.79946 5.48135 3.09 6.19081C2.38061 6.9002 2.30757 7.99743 2.30005 10.0534C2.58131 9.954 2.88393 9.9 3.19918 9.9C4.69036 9.9 5.89919 11.1088 5.89919 12.6C5.89919 14.0912 4.69036 15.3 3.19918 15.3C2.88393 15.3 2.58131 15.246 2.30005 15.1466C2.30757 17.2026 2.38061 18.2998 3.09 19.0092C3.79939 19.7185 4.89662 19.7916 6.95252 19.7991C6.85322 19.5179 6.79919 19.2153 6.79919 18.9C6.79919 17.4088 8.00802 16.2 9.49918 16.2C10.9904 16.2 12.1991 17.4088 12.1991 18.9C12.1991 19.2153 12.1451 19.5179 12.0459 19.7991C14.1017 19.7916 15.199 19.7185 15.9084 19.0092C16.6178 18.2997 16.6908 17.2023 16.6983 15.1461C16.98 15.2457 17.2832 15.3 17.5991 15.3C19.0904 15.3 20.2992 14.0912 20.2992 12.6C20.2992 11.1088 19.0904 9.9 17.5991 9.9C17.2832 9.9 16.98 9.95427 16.6983 10.0539C16.6908 7.99764 16.6178 6.90027 15.9084 6.19081C15.1989 5.48135 14.1016 5.40837 12.0452 5.40086Z" fill="#0175A2"/>
</g>
</svg>
