<svg width="24" height="24" viewBox="0 0 24 24" fill="none" xmlns="http://www.w3.org/2000/svg">
<g id="user-plus_svgrepo.com">
<path id="Vector" d="M10 10C12.2091 10 14 8.20914 14 6C14 3.79086 12.2091 2 10 2C7.79086 2 6 3.79086 6 6C6 8.20914 7.79086 10 10 10Z" stroke="#E478FA" stroke-width="2"/>
<path id="Vector_2" d="M21 10H19M19 10H17M19 10V8M19 10V12" stroke="#E478FA" stroke-linecap="round"/>
<path id="Vector_3" d="M20.3909 11.4371L19 9.99999M19 9.99999L17.609 8.56289M19 9.99999L20.4371 8.60904M19 9.99999L17.5629 11.3909" stroke="#E478FA" stroke-linecap="round"/>
<path id="Vector_4" d="M17.9975 18C18 17.8358 18 17.669 18 17.5C18 15.0147 14.4183 13 10 13C5.58172 13 2 15.0147 2 17.5C2 19.9853 2 22 10 22C12.231 22 13.8398 21.8433 15 21.5634" stroke="#E478FA" stroke-width="2" stroke-linecap="round"/>
</g>
</svg>
