<svg width="24" height="24" viewBox="0 0 24 24" fill="none" xmlns="http://www.w3.org/2000/svg">
<g id="users-group-rounded_svgrepo.com">
<path id="Vector" d="M9 10C11.2091 10 13 8.20914 13 6C13 3.79086 11.2091 2 9 2C6.79086 2 5 3.79086 5 6C5 8.20914 6.79086 10 9 10Z" stroke="#027A48" stroke-width="2"/>
<path id="Vector_2" d="M15 9C16.6569 9 18 7.65685 18 6C18 4.34315 16.6569 3 15 3" stroke="#027A48" stroke-width="2" stroke-linecap="round"/>
<path id="Vector_3" d="M9 21C12.866 21 16 19.2091 16 17C16 14.7909 12.866 13 9 13C5.13401 13 2 14.7909 2 17C2 19.2091 5.13401 21 9 21Z" stroke="#027A48" stroke-width="2"/>
<path id="Vector_4" d="M18 14C19.7542 14.3847 21 15.3589 21 16.5C21 17.5293 19.9863 18.4229 18.5 18.8704" stroke="#027A48" stroke-width="2" stroke-linecap="round"/>
</g>
</svg>
